<?xml version="1.0" encoding="utf-8"?>
<!-- Generator: Adobe Illustrator 23.0.0, SVG Export Plug-In . SVG Version: 6.00 Build 0)  -->
<svg version="1.1" id="レイヤー_1" xmlns="http://www.w3.org/2000/svg" xmlns:xlink="http://www.w3.org/1999/xlink" x="0px"
	 y="0px" viewBox="0 0 190.5 43" style="enable-background:new 0 0 190.5 43;" xml:space="preserve">
<style type="text/css">
	.st0{fill:#7EDBB8;}
	.st1{fill:#55C299;}
	.st2{fill:#35A67B;}
	.st3{enable-background:new    ;}
	.st4{fill:#222222;}
</style>
<g transform="translate(0 6.642)">
	<g transform="translate(0 -4.328)">
		<g transform="translate(0 13.634)">
			<path class="st0" d="M9.9,6.3L6.3,9.9c-0.6,0.6-1.6,0.6-2.2,0L0.4,6.3c-0.6-0.6-0.6-1.6,0-2.2L4,0.5c0.6-0.6,1.6-0.6,2.2,0
				l3.6,3.6C10.5,4.7,10.5,5.7,9.9,6.3z"/>
		</g>
		<g transform="translate(6.817 6.817)">
			<path class="st0" d="M9.9,6.3L6.3,9.9c-0.6,0.6-1.6,0.6-2.2,0L0.5,6.3c-0.6-0.6-0.6-1.6,0-2.2l3.6-3.6c0.6-0.6,1.6-0.6,2.2,0
				l3.6,3.6C10.5,4.7,10.5,5.7,9.9,6.3z"/>
		</g>
		<g transform="translate(13.633 0)">
			<path class="st0" d="M9.9,6.3L6.3,9.9c-0.6,0.6-1.6,0.6-2.2,0L0.5,6.3c-0.6-0.6-0.6-1.6,0-2.2l3.6-3.6c0.6-0.6,1.6-0.6,2.2,0
				l3.6,3.6C10.5,4.7,10.5,5.7,9.9,6.3z"/>
		</g>
		<g transform="translate(6.726 20.359)">
			<path class="st1" d="M9.9,6.3L6.3,9.9c-0.6,0.6-1.6,0.6-2.2,0L0.5,6.3c-0.6-0.6-0.6-1.6,0-2.2l3.6-3.6c0.6-0.6,1.6-0.6,2.2,0
				l3.6,3.6C10.5,4.7,10.5,5.7,9.9,6.3z"/>
		</g>
		<g transform="translate(20.359 6.726)">
			<path class="st1" d="M9.9,6.3L6.3,9.9c-0.6,0.6-1.6,0.6-2.2,0L0.5,6.3c-0.6-0.6-0.6-1.6,0-2.2l3.6-3.6c0.6-0.6,1.6-0.6,2.2,0
				l3.6,3.6C10.5,4.7,10.5,5.7,9.9,6.3z"/>
		</g>
		<g transform="translate(13.543 13.543)">
			<path class="st1" d="M9.9,6.3L6.3,9.9c-0.6,0.6-1.6,0.6-2.2,0L0.4,6.3c-0.6-0.6-0.6-1.6,0-2.2L4,0.5c0.6-0.6,1.6-0.6,2.2,0
				l3.6,3.6C10.5,4.7,10.5,5.7,9.9,6.3z"/>
		</g>
		<g transform="translate(13.452 27.085)">
			<path class="st2" d="M9.9,6.3L6.3,9.9c-0.6,0.6-1.6,0.6-2.2,0L0.5,6.3c-0.6-0.6-0.6-1.6,0-2.2l3.6-3.6c0.6-0.6,1.6-0.6,2.2,0
				l3.6,3.6C10.5,4.7,10.5,5.7,9.9,6.3z"/>
		</g>
		<g transform="translate(20.268 20.268)">
			<path class="st2" d="M9.9,6.3L6.3,9.9c-0.6,0.6-1.6,0.6-2.2,0L0.4,6.3c-0.6-0.6-0.6-1.6,0-2.2L4,0.5c0.6-0.6,1.6-0.6,2.2,0
				l3.6,3.6C10.5,4.7,10.5,5.7,9.9,6.3z"/>
		</g>
		<g transform="translate(27.085 13.452)">
			<path class="st2" d="M9.9,6.3L6.3,9.9c-0.6,0.6-1.6,0.6-2.2,0L0.5,6.3c-0.6-0.6-0.6-1.6,0-2.2l3.6-3.6c0.6-0.6,1.6-0.6,2.2,0
				l3.6,3.6C10.5,4.7,10.5,5.7,9.9,6.3z"/>
		</g>
	</g>
	<g class="st3">
		<path class="st4" d="M63.8,10.5c1.4,1.4,2.1,3.4,2.1,6.1v10.7h-4.4V17.2c0-1.6-0.4-2.9-1.2-3.7c-0.8-0.8-1.9-1.2-3.3-1.2
			c-1.6,0-2.9,0.5-3.8,1.5c-0.9,1-1.4,2.4-1.4,4.2v9.5h-4.4V8.7h4.2v2.4c0.7-0.9,1.6-1.5,2.7-2c1.1-0.4,2.3-0.7,3.7-0.7
			C60.5,8.5,62.4,9.1,63.8,10.5z"/>
		<path class="st4" d="M71.7,4.8c-0.5-0.5-0.8-1.1-0.8-1.9c0-0.7,0.3-1.4,0.8-1.9c0.5-0.5,1.2-0.8,2-0.8c0.8,0,1.5,0.2,2,0.7
			c0.5,0.5,0.8,1.1,0.8,1.8c0,0.8-0.3,1.4-0.8,1.9c-0.5,0.5-1.2,0.8-2,0.8C72.9,5.6,72.3,5.3,71.7,4.8z M71.5,8.7h4.4v18.7h-4.4V8.7
			z"/>
		<path class="st4" d="M97.9,10.5c1.4,1.4,2.1,3.4,2.1,6.1v10.7h-4.4V17.2c0-1.6-0.4-2.9-1.2-3.7c-0.8-0.8-1.9-1.2-3.3-1.2
			c-1.6,0-2.9,0.5-3.8,1.5c-0.9,1-1.4,2.4-1.4,4.2v9.5h-4.4V8.7h4.2v2.4c0.7-0.9,1.6-1.5,2.7-2c1.1-0.4,2.3-0.7,3.7-0.7
			C94.6,8.5,96.5,9.1,97.9,10.5z"/>
		<path class="st4" d="M123.3,19.4h-14.7c0.3,1.4,0.9,2.5,2,3.3c1.1,0.8,2.4,1.2,4,1.2c2.1,0,3.7-0.7,5.1-2l2.3,2.7
			c-0.8,1-1.9,1.8-3.2,2.3c-1.3,0.5-2.7,0.8-4.3,0.8c-2.1,0-3.9-0.4-5.4-1.2c-1.6-0.8-2.8-2-3.6-3.4c-0.9-1.5-1.3-3.1-1.3-5
			c0-1.8,0.4-3.5,1.2-4.9c0.8-1.5,2-2.6,3.4-3.4c1.5-0.8,3.1-1.2,5-1.2c1.8,0,3.4,0.4,4.9,1.2c1.4,0.8,2.6,1.9,3.4,3.4
			c0.8,1.5,1.2,3.1,1.2,5.1C123.4,18.4,123.3,18.9,123.3,19.4z M110.4,13.2c-1,0.8-1.6,1.9-1.8,3.3h10.6c-0.2-1.4-0.8-2.5-1.7-3.3
			c-1-0.8-2.1-1.3-3.6-1.3C112.5,12,111.3,12.4,110.4,13.2z"/>
		<path class="st4" d="M142.8,9.6c1.4,0.8,2.6,1.9,3.4,3.4c0.8,1.4,1.2,3.1,1.2,5c0,1.9-0.4,3.6-1.2,5s-1.9,2.6-3.4,3.4
			c-1.4,0.8-3.1,1.2-4.9,1.2c-1.3,0-2.5-0.2-3.5-0.7c-1.1-0.4-2-1.1-2.7-2v2.4h-4.2v-26h4.4v9.6c0.7-0.8,1.6-1.4,2.6-1.9
			c1-0.4,2.1-0.6,3.3-0.6C139.7,8.5,141.4,8.9,142.8,9.6z M141.4,22.2c1-1.1,1.6-2.5,1.6-4.2s-0.5-3.2-1.6-4.2c-1-1.1-2.4-1.6-4-1.6
			c-1,0-2,0.2-2.8,0.7c-0.8,0.5-1.5,1.2-2,2s-0.7,1.9-0.7,3.1s0.2,2.2,0.7,3.1s1.2,1.6,2,2c0.8,0.5,1.8,0.7,2.8,0.7
			C139,23.9,140.4,23.3,141.4,22.2z"/>
		<path class="st4" d="M154.9,26.4c-1.5-0.8-2.7-2-3.6-3.4c-0.9-1.5-1.3-3.1-1.3-5s0.4-3.5,1.3-4.9c0.9-1.4,2-2.6,3.6-3.4
			s3.2-1.2,5.1-1.2c1.9,0,3.6,0.4,5.1,1.2c1.5,0.8,2.7,1.9,3.6,3.4c0.9,1.4,1.3,3.1,1.3,4.9s-0.4,3.5-1.3,5c-0.9,1.5-2,2.6-3.6,3.4
			c-1.5,0.8-3.2,1.2-5.1,1.2C158.1,27.6,156.4,27.2,154.9,26.4z M164,22.2c1.1-1.1,1.6-2.5,1.6-4.2s-0.5-3.2-1.6-4.2
			c-1-1.1-2.4-1.6-4-1.6s-2.9,0.5-4,1.6s-1.6,2.5-1.6,4.2s0.5,3.2,1.6,4.2c1,1.1,2.4,1.6,4,1.6S162.9,23.3,164,22.2z"/>
		<path class="st4" d="M185.4,27.4l-4.8-6.5l-4.8,6.5H171l7.3-9.5l-7-9.2h4.9l4.6,6.1l4.6-6.1h4.7l-7,9.1l7.3,9.6H185.4z"/>
	</g>
</g>
</svg>
